# xmcd CD database file
#
# Track frame offsets:
#	150
#	25312
#	60340
#	92732
#	113215
#	149390
#	195482
#	233170
#	257095
#	295122
#	323145
#
# Disc length: 4624 seconds
#
# Revision: 0
# Processed by: cddbd v1.5.2PL0 Copyright (c) Steve Scherf et al.
# Submitted via: CDex 1.70beta2
#
DISCID=96120e0b
DTITLE=Wallace Roney - No Room for Argument
DYEAR=2000
DGENRE=Jazz
TTITLE0=No Room for Argument 
TTITLE1=Homage and Acknowledgement
TTITLE2=Straight No Nothing
TTITLE3=Metropolis
TTITLE4=Christina
TTITLE5=Neubeings
TTITLE6=Cygroove
TTITLE7=He Who Knows
TTITLE8=Virtual Chocolate Cherry
TTITLE9=Midnight Blue
TTITLE10=Potia
EXTD=YEAR: 2000
EXTT0=
EXTT1=
EXTT2=
EXTT3=
EXTT4=
EXTT5=
EXTT6=
EXTT7=
EXTT8=
EXTT9=
EXTT10=
PLAYORDER=
